HIERARCHY
ROOT Hips
{
	OFFSET 0.000000 0.000000 0.000000
	CHANNELS 6 Xposition Yposition Zposition Xrotation Yrotation Zrotation
	JOINT LeftUpLeg_virtual
	{
		OFFSET 0.000000 0.000000 0.000000
		CHANNELS 3 Xrotation Yrotation Zrotation
		JOINT LeftUpLeg
		{
			OFFSET 13.026900 -6.336304 -1.092800
			CHANNELS 3 Xrotation Yrotation Zrotation
			JOINT LeftLeg
			{
				OFFSET 0.524474 -46.096886 9.782700
				CHANNELS 3 Xrotation Yrotation Zrotation
				JOINT LeftFoot
				{
					OFFSET -0.524474 -53.427422 -12.948200
					CHANNELS 3 Xrotation Yrotation Zrotation
					JOINT LeftToeBase
					{
						OFFSET 0.192200 -14.009700 16.364100
						CHANNELS 3 Xrotation Yrotation Zrotation
						JOINT LeftToe_End
						{
							OFFSET -1.784700 -0.561700 9.474800
							CHANNELS 3 Xrotation Yrotation Zrotation
							End Site
							{
								OFFSET 0 0 0
							}
						}
					}
				}
			}
		}
	}
	JOINT RightUpLeg_virtual
	{
		OFFSET 0.000000 0.000000 0.000000
		CHANNELS 3 Xrotation Yrotation Zrotation
		JOINT RightUpLeg
		{
			OFFSET -12.883000 -6.336304 -1.092800
			CHANNELS 3 Xrotation Yrotation Zrotation
			JOINT RightLeg
			{
				OFFSET -0.524587 -46.096825 9.782800
				CHANNELS 3 Xrotation Yrotation Zrotation
				JOINT RightFoot
				{
					OFFSET 0.524587 -53.427383 -12.948300
					CHANNELS 3 Xrotation Yrotation Zrotation
					JOINT RightToeBase
					{
						OFFSET -0.192200 -14.009700 16.364100
						CHANNELS 3 Xrotation Yrotation Zrotation
						JOINT RightToe_End
						{
							OFFSET 1.784700 -0.561700 9.474800
							CHANNELS 3 Xrotation Yrotation Zrotation
							End Site
							{
								OFFSET 0 0 0
							}
						}
					}
				}
			}
		}
	}
	JOINT Spine_virtual
	{
		OFFSET 0.000000 0.000000 0.000000
		CHANNELS 3 Xrotation Yrotation Zrotation
		JOINT Spine
		{
			OFFSET 0.072000 7.257294 -0.789700
			CHANNELS 3 Xrotation Yrotation Zrotation
			JOINT Spine1
			{
				OFFSET 0.000000 12.508769 -0.658067
				CHANNELS 3 Xrotation Yrotation Zrotation
				JOINT Spine1_split
				{
					OFFSET 0.000000 12.508769 -0.658067
					CHANNELS 3 Xrotation Yrotation Zrotation
					JOINT Spine2
					{
						OFFSET 0.000000 12.508769 -0.658067
						CHANNELS 3 Xrotation Yrotation Zrotation
						JOINT Neck_virtual
						{
							OFFSET 0.000000 0.000000 0.000000
							CHANNELS 3 Xrotation Yrotation Zrotation
							JOINT Neck
							{
								OFFSET 0.000000 14.033295 7.520400
								CHANNELS 3 Xrotation Yrotation Zrotation
								JOINT Head
								{
									OFFSET 0.000000 8.198502 5.703100
									CHANNELS 3 Xrotation Yrotation Zrotation
									JOINT HeadTop_End
									{
										OFFSET 0.000000 17.760803 13.332701
										CHANNELS 3 Xrotation Yrotation Zrotation
										End Site
										{
											OFFSET 0 0 0
										}
									}
								}
							}
						}
						JOINT LeftShoulder_virtual
						{
							OFFSET 0.000000 0.000000 0.000000
							CHANNELS 3 Xrotation Yrotation Zrotation
							JOINT LeftShoulder
							{
								OFFSET 6.292450 5.785301 -0.669000
								CHANNELS 3 Xrotation Yrotation Zrotation
								JOINT LeftShoulder_split
								{
									OFFSET 6.292450 5.785301 -0.669000
									CHANNELS 3 Xrotation Yrotation Zrotation
									JOINT LeftArm
									{
										OFFSET 13.907140 -6.093903 1.965100
										CHANNELS 3 Xrotation Yrotation Zrotation
										JOINT LeftForeArm
										{
											OFFSET 34.140198 0.000000 0.000000
											CHANNELS 3 Xrotation Yrotation Zrotation
											JOINT LeftHand
											{
												OFFSET 40.960209 0.000000 0.000000
												CHANNELS 3 Xrotation Yrotation Zrotation
												End Site
												{
													OFFSET 0 0 0
												}
											}
										}
									}
								}
							}
						}
						JOINT RightShoulder_virtual
						{
							OFFSET 0.000000 0.000000 0.000000
							CHANNELS 3 Xrotation Yrotation Zrotation
							JOINT RightShoulder
							{
								OFFSET -6.292450 5.785301 -0.669000
								CHANNELS 3 Xrotation Yrotation Zrotation
								JOINT RightShoulder_split
								{
									OFFSET -6.292450 5.785301 -0.669000
									CHANNELS 3 Xrotation Yrotation Zrotation
									JOINT RightArm
									{
										OFFSET -13.907140 -6.093903 1.965100
										CHANNELS 3 Xrotation Yrotation Zrotation
										JOINT RightForeArm
										{
											OFFSET -34.140198 0.000000 0.000000
											CHANNELS 3 Xrotation Yrotation Zrotation
											JOINT RightHand
											{
												OFFSET -40.960209 0.000000 0.000000
												CHANNELS 3 Xrotation Yrotation Zrotation
												End Site
												{
													OFFSET 0 0 0
												}
											}
										}
									}
								}
							}
						}
					}
				}
			}
		}
	}
}
MOTION
Frames: 5
Frame Time: 0.03333333
0.482035 118.308517 -5.900108 0.000000 0.000000 0.000000 37.083662 -12.072519 1.285388 -82.132089 2.541973 24.625509 86.563809 -5.405588 -3.204126 14.350547 -17.172959 -5.414442 5.338331 -0.595746 0.439545 0.000000 0.000000 0.000000 32.192539 -17.613608 3.998685 -40.879249 -3.136011 1.311506 29.181170 1.870359 -4.001397 0.354505 -7.892403 -9.010392 -21.383091 2.127959 -0.584589 0.000000 0.000000 0.000000 38.867820 -7.654014 1.595434 16.697048 1.074446 -8.145842 -5.878305 1.660274 1.172168 1.527211 0.283595 -0.160065 0.000000 0.000000 0.000000 -9.125663 -1.371473 3.685442 -0.773510 6.962622 -1.608711 -22.445378 11.051052 -6.872589 0.000000 0.000000 0.000000 -8.890056 -0.697197 2.783063 2.541536 -5.247032 11.020072 -1.362793 -8.115749 -4.975200 -66.702357 -3.293279 -24.202625 174.601178 -78.092039 175.299988 0.000000 0.000000 0.000000 -8.523583 -1.310752 4.283591 5.310239 15.202135 0.744650 -3.946698 2.042033 3.118365 -14.773991 1.551350 47.754572 -0.628067 68.584825 -3.366794 0.000000 0.000000 0.000000 
-1.563407 117.551712 9.594120 0.000000 0.000000 0.000000 33.292572 -13.171091 0.797710 -85.352564 4.310876 25.778847 73.390861 -2.079881 -4.918131 13.568782 -15.963837 -5.194948 5.056543 -0.574639 0.594396 0.000000 0.000000 0.000000 30.629034 -21.720384 4.945619 -34.083925 -1.870836 -0.597302 27.678360 1.797403 -4.019892 4.040879 -6.228633 -2.622145 -25.685883 1.825757 -0.513569 0.000000 0.000000 0.000000 37.686337 -8.138085 1.295985 17.176087 2.696848 -8.341918 -6.009834 2.111158 1.336766 0.188838 1.983043 -0.674223 0.000000 0.000000 0.000000 -8.445981 -0.941094 3.833648 -1.079685 6.789011 -1.515489 -22.094426 10.575541 -6.452885 0.000000 0.000000 0.000000 -8.442525 -0.155393 3.223280 2.190466 -3.708666 9.840228 1.154321 -6.934687 -4.446978 -63.652589 -0.797818 -24.363785 164.553300 -78.404001 165.062641 0.000000 0.000000 0.000000 -8.719516 -0.749841 4.106346 5.216450 17.266988 0.228944 -4.508884 1.897771 0.627900 -18.779185 8.481325 46.523762 4.218399 74.877178 -8.574778 0.000000 0.000000 0.000000 
-3.789576 116.317513 27.770664 0.000000 0.000000 0.000000 29.822272 -14.524780 1.380568 -85.695494 5.435762 24.377256 59.473387 2.311343 -4.825705 13.754941 -13.071324 -4.561487 4.332724 -0.681592 0.632284 0.000000 0.000000 0.000000 29.269936 -21.809832 5.021811 -20.291954 0.676772 -2.779739 24.642522 0.600956 -4.589589 5.874813 -4.386029 2.682405 -23.206683 1.421227 0.086440 0.000000 0.000000 0.000000 34.513936 -8.132208 0.911991 18.722196 5.423654 -9.451762 -5.600040 2.827281 1.606234 -0.360347 1.596295 0.605799 0.000000 0.000000 0.000000 -7.126210 -0.011374 4.107973 -2.561318 5.765397 -1.008036 -21.750230 8.737430 -6.552714 0.000000 0.000000 0.000000 -7.578295 0.854348 3.671810 1.723597 -1.671675 6.838214 2.929005 -5.337143 -2.613680 -58.346269 3.562162 -24.855403 144.221821 -75.696869 144.708199 0.000000 0.000000 0.000000 -8.131261 0.282743 3.811582 5.104314 19.934694 0.442005 -3.934490 0.739775 -1.555412 -22.669480 15.328883 43.665150 16.998555 78.446690 -21.854860 0.000000 0.000000 0.000000 
-5.380014 114.236259 44.738617 0.000000 0.000000 0.000000 26.748272 -14.074440 2.520500 -82.903825 6.174596 20.488020 48.578372 6.017590 -2.801530 13.313369 -9.277088 -3.475907 4.468654 -0.910425 0.705543 0.000000 0.000000 0.000000 28.762497 -18.213256 4.611810 -5.038319 2.738314 -5.124435 22.448368 -1.314056 -5.708137 5.553526 -3.397799 5.579593 -15.845093 1.245918 0.714591 0.000000 0.000000 0.000000 29.718273 -6.961455 0.657032 21.410328 8.371963 -11.196458 -4.784590 3.441059 1.895164 1.448735 -1.024438 3.269204 0.000000 0.000000 0.000000 -5.626676 0.954589 4.433491 -5.091709 4.325898 -0.161588 -21.483824 6.349793 -7.108674 0.000000 0.000000 0.000000 -6.651722 1.793991 3.886926 1.423538 0.230545 2.455327 4.979623 -3.761935 -0.793454 -50.833809 8.921185 -26.884345 131.998337 -69.059913 132.474989 0.000000 0.000000 0.000000 -6.925980 1.234728 3.436625 4.746665 22.406559 2.200270 -3.158095 -0.730119 -3.274957 -24.159045 18.761428 39.626773 30.967617 78.622171 -36.438851 0.000000 0.000000 0.000000 
-6.260820 111.761902 60.004501 0.000000 0.000000 0.000000 23.600995 -11.352912 3.778158 -77.746657 6.531177 14.797934 41.194691 7.677871 0.371599 11.644139 -6.278722 -2.566604 4.649067 -1.101652 0.913685 0.000000 0.000000 0.000000 28.449691 -12.468130 4.112060 4.658896 3.427722 -7.333280 26.762537 -2.611070 -6.544613 5.225664 -2.551043 7.096622 -8.074931 1.428749 1.069281 0.000000 0.000000 0.000000 24.599778 -4.327071 1.113259 25.015450 10.565910 -12.988248 -3.724167 3.616768 1.971795 2.923140 -3.396932 4.822370 0.000000 0.000000 0.000000 -4.327343 1.319056 4.672441 -8.412735 2.667191 0.872791 -21.101565 3.871407 -7.899422 0.000000 0.000000 0.000000 -5.881534 2.093164 3.683023 1.336994 1.081295 -2.661254 7.882969 -1.887056 0.657118 -40.932248 13.928045 -31.227628 129.074388 -60.899374 129.466345 0.000000 0.000000 0.000000 -5.493056 1.527522 2.993374 4.042710 23.691857 5.731561 -3.586678 -1.787642 -4.219407 -22.186153 16.996521 35.605889 38.893932 77.584542 -44.996344 0.000000 0.000000 0.000000 
